Coordinates
version=1
nRows=12
nColumns=34
inDegrees=no

Units are S.I. units (second, meters, Newtons, ...)
If the header above contains a line with 'inDegrees', this indicates whether rotational values are in degrees (yes) or radians (no).

endheader
time	pelvis_tilt	pelvis_list	pelvis_rotation	pelvis_tx	pelvis_ty	pelvis_tz	hip_flexion_r	hip_adduction_r	hip_rotation_r	knee_angle_r	ankle_angle_r	subtalar_angle_r	mtp_angle_r	hip_flexion_l	hip_adduction_l	hip_rotation_l	knee_angle_l	ankle_angle_l	subtalar_angle_l	mtp_angle_l	lumbar_extension	lumbar_bending	lumbar_rotation	arm_flex_r	arm_add_r	arm_rot_r	elbow_flex_r	pro_sup_r	arm_flex_l	arm_add_l	arm_rot_l	elbow_flex_l	pro_sup_l
1	0.272255	0.0821759	-0.0864502	0.925961	0.930071	-0.265895	0.19802	-0.224754	-0.0646637	1.03284	0.0454509	-0.256875	-0.0541052	-0.310929	0.105121	-0.109272	0.0300665	0.183545	0.0726793	-0.0541784	-0.617933	-0.305589	-0.156368	0.193706	-0.191656	0.322554	0.565285	1.23828	0.303639	-0.337937	0.361399	0.487371	1.12009
1.01	0.273879	0.0790179	-0.0864326	0.935213	0.929961	-0.266991	0.207328	-0.220981	-0.0736941	0.995824	0.0493769	-0.260667	-0.0540989	-0.329298	0.10498	-0.10457	0.0214015	0.188464	0.0709951	-0.0541722	-0.6202	-0.294739	-0.160241	0.191686	-0.192831	0.308518	0.56665	1.22533	0.307483	-0.340193	0.37475	0.496312	1.1167
1.02	0.275775	0.0756884	-0.0875005	0.94448	0.929697	-0.26795	0.214917	-0.216471	-0.0819164	0.955822	0.0520395	-0.264355	-0.0540927	-0.348437	0.104949	-0.100736	0.0122925	0.192993	0.0691194	-0.0541659	-0.622533	-0.284147	-0.162486	0.190065	-0.19409	0.294914	0.567371	1.21128	0.311953	-0.341927	0.389177	0.504023	1.11403
1.03	0.277942	0.0721101	-0.0896108	0.953784	0.929288	-0.268771	0.220684	-0.211065	-0.0893608	0.912935	0.0536691	-0.267251	-0.0540864	-0.368451	0.105026	-0.0976786	0.00275802	0.197052	0.0669454	-0.0541597	-0.624888	-0.273739	-0.163141	0.188793	-0.195431	0.281671	0.567356	1.19696	0.31683	-0.34306	0.40428	0.510504	1.11263
1.04	0.280342	0.0682134	-0.0926427	0.963145	0.928746	-0.269454	0.224557	-0.204654	-0.0961489	0.867253	0.05459	-0.268551	-0.0540802	-0.389298	0.105169	-0.0953903	-0.00701908	0.200691	0.0645512	-0.0541534	-0.6272	-0.263402	-0.162328	0.187822	-0.196837	0.268728	0.566516	1.1832	0.321873	-0.343531	0.419555	0.515804	1.11298
1.05	0.282897	0.0639488	-0.0964088	0.972581	0.928086	-0.270004	0.226512	-0.197179	-0.102437	0.818861	0.0552022	-0.267379	-0.054074	-0.410768	0.105299	-0.0939753	-0.0167042	0.204093	0.0622263	-0.0541472	-0.629389	-0.253013	-0.160241	0.1871	-0.198275	0.256049	0.564783	1.17069	0.326853	-0.343307	0.434451	0.520006	1.11549
1.06	0.285485	0.0592975	-0.10067	0.982102	0.927313	-0.270432	0.226581	-0.18864	-0.108349	0.767852	0.0559497	-0.26285	-0.0540677	-0.432482	0.105314	-0.0936384	-0.0258583	0.207565	0.0604427	-0.0541409	-0.631359	-0.242454	-0.157132	0.18658	-0.199699	0.243631	0.562129	1.15991	0.331579	-0.342393	0.448432	0.523218	1.12043
1.07	0.287942	0.0542831	-0.105148	0.991708	0.926425	-0.27075	0.224865	-0.1791	-0.113915	0.714343	0.0572766	-0.254162	-0.0540615	-0.453914	0.105095	-0.0946302	-0.0340167	0.211481	0.059768	-0.0541347	-0.63301	-0.231629	-0.153288	0.186217	-0.201052	0.231497	0.558579	1.15108	0.335918	-0.340832	0.461028	0.525564	1.12786
1.08	0.290057	0.0489857	-0.109549	1.0014	0.925423	-0.270971	0.221535	-0.168691	-0.119016	0.658499	0.0595763	-0.240703	-0.0540552	-0.474444	0.104529	-0.0971609	-0.0407799	0.216212	0.0607342	-0.0541284	-0.634232	-0.220476	-0.149025	0.185964	-0.202268	0.219687	0.554208	1.14415	0.339801	-0.338704	0.471883	0.527174	1.13768
1.09	0.291607	0.0435452	-0.11357	1.01116	0.924304	-0.27111	0.216851	-0.157623	-0.123345	0.600576	0.0631416	-0.222167	-0.054049	-0.493412	0.103526	-0.101307	-0.0458815	0.222046	0.0636949	-0.0541222	-0.634904	-0.208979	-0.144669	0.185778	-0.203275	0.208242	0.54914	1.13885	0.343224	-0.336113	0.480773	0.528175	1.14957
1.1	0.292351	0.0381643	-0.116919	1.021	0.923066	-0.271186	0.211176	-0.146197	-0.126405	0.540974	0.0681261	-0.198669	-0.0540427	-0.510178	0.102045	-0.106955	-0.0491653	0.229134	0.068729	-0.054116	-0.634884	-0.197187	-0.140555	0.185618	-0.203999	0.1972	0.543521	1.13481	0.346224	-0.333186	0.487614	0.528692	1.16303
1.11	0.292064	0.0330982	-0.119329	1.0309	0.921706	-0.271215	0.204952	-0.134799	-0.12755	0.480284	0.0745218	-0.17081	-0.0540365	-0.524192	0.100097	-0.113809	-0.0505106	0.237474	0.0756189	-0.0541097	-0.634028	-0.185208	-0.13701	0.185445	-0.204362	0.18658	0.537505	1.13161	0.348862	-0.330051	0.492462	0.528844	1.17736
